
<svg id="Capa_1" fill="#f0ad4e" enable-background="new 0 0 510 510" height="512" viewBox="0 0 510 510" width="512" xmlns="http://www.w3.org/2000/svg"><path d="m150 0h-90c-8.291 0-15 6.709-15 15s6.709 15 15 15h90c8.291 0 15-6.709 15-15s-6.709-15-15-15z"/><path d="m300 0h-90c-8.291 0-15 6.709-15 15s6.709 15 15 15h90c8.291 0 15-6.709 15-15s-6.709-15-15-15z"/><path d="m450 0h-90c-8.291 0-15 6.709-15 15s6.709 15 15 15h90c8.291 0 15-6.709 15-15s-6.709-15-15-15z"/><path d="m150 60h-90c-8.291 0-15 6.709-15 15v60c0 8.291 6.709 15 15 15h90c8.291 0 15-6.709 15-15v-60c0-8.291-6.709-15-15-15z"/><path d="m150 180h-90c-8.291 0-15 6.709-15 15v60c0 8.291 6.709 15 15 15h90c8.291 0 15-6.709 15-15v-60c0-8.291-6.709-15-15-15z"/><path d="m150 300h-90c-8.291 0-15 6.709-15 15v60c0 8.291 6.709 15 15 15h90c8.291 0 15-6.709 15-15v-60c0-8.291-6.709-15-15-15z"/><path d="m150 420h-90c-8.291 0-15 6.709-15 15v60c0 8.291 6.709 15 15 15h90c8.291 0 15-6.709 15-15v-60c0-8.291-6.709-15-15-15z"/><path d="m300 60h-90c-8.291 0-15 6.709-15 15v60c0 8.291 6.709 15 15 15h90c8.291 0 15-6.709 15-15v-60c0-8.291-6.709-15-15-15z"/><path d="m450 60h-90c-8.291 0-15 6.709-15 15v60c0 8.291 6.709 15 15 15h90c8.291 0 15-6.709 15-15v-60c0-8.291-6.709-15-15-15z"/><path d="m450 180h-90c-8.291 0-15 6.709-15 15v60c0 8.291 6.709 15 15 15h90c8.291 0 15-6.709 15-15v-60c0-8.291-6.709-15-15-15z"/><path d="m450 300h-90c-8.291 0-15 6.709-15 15v60c0 8.291 6.709 15 15 15h90c8.291 0 15-6.709 15-15v-60c0-8.291-6.709-15-15-15z"/></svg>